<svg xmlns="http://www.w3.org/2000/svg" xmlns:xlink="http://www.w3.org/1999/xlink" width="500" zoomAndPan="magnify" viewBox="0 0 375 374.999991" height="500" preserveAspectRatio="xMidYMid meet" version="1.2"><defs/><g id="2fcdb9f333"><g style="fill:#fefdfe;fill-opacity:1;"><g transform="translate(26.75087, 213.755031)"><path style="stroke:none" d="M 32.96875 -46.4375 C 33.144531 -45.664062 33.238281 -45.148438 33.25 -44.890625 C 33.257812 -44.148438 33.070312 -43.566406 32.6875 -43.140625 C 32.3125 -42.710938 31.734375 -42.488281 30.953125 -42.46875 L 18.921875 -42.21875 L 19.796875 -0.40625 L 15.09375 -0.3125 L 14.21875 -42.125 L 0.109375 -41.828125 L 0.03125 -45.75 Z M 32.96875 -46.4375 "/></g></g><g style="fill:#fefdfe;fill-opacity:1;"><g transform="translate(61.645587, 213.026492)"><path style="stroke:none" d="M 37.859375 -46.546875 L 38.8125 -0.8125 L 34.125 -0.71875 L 33.671875 -22.28125 L 9.875 -21.78125 L 10.328125 -0.21875 L 5.625 -0.125 L 4.671875 -45.859375 L 9.375 -45.953125 L 9.796875 -25.703125 L 33.59375 -26.203125 L 33.171875 -46.453125 Z M 37.859375 -46.546875 "/></g></g><g style="fill:#ffffff;fill-opacity:1;"><g transform="translate(98.877891, 199.303307)"><path style="stroke:none" d="M 61.203125 -4.28125 C 61.054688 -3.90625 60.523438 -3.367188 59.609375 -2.671875 C 57.597656 -1.367188 55.4375 -0.128906 53.125 1.046875 C 50.8125 2.222656 48.429688 3.269531 45.984375 4.1875 C 43.546875 5.101562 41.082031 5.878906 38.59375 6.515625 C 36.101562 7.160156 33.671875 7.601562 31.296875 7.84375 C 28.929688 8.082031 26.664062 8.082031 24.5 7.84375 C 22.34375 7.601562 20.367188 7.101562 18.578125 6.34375 C 14.679688 4.75 12.125 2.378906 10.90625 -0.765625 C 9.6875 -3.910156 10.015625 -7.769531 11.890625 -12.34375 C 13.460938 -16.164062 15.570312 -19.632812 18.21875 -22.75 C 20.875 -25.863281 24.304688 -28.5 28.515625 -30.65625 C 29.296875 -31.019531 30.128906 -31.332031 31.015625 -31.59375 C 31.910156 -31.851562 32.8125 -32.035156 33.71875 -32.140625 C 34.625 -32.253906 35.519531 -32.269531 36.40625 -32.1875 C 37.300781 -32.101562 38.160156 -31.925781 38.984375 -31.65625 C 39.171875 -31.570312 39.425781 -31.429688 39.75 -31.234375 C 40.082031 -31.046875 40.414062 -30.8125 40.75 -30.53125 C 41.09375 -30.25 41.410156 -29.941406 41.703125 -29.609375 C 41.992188 -29.273438 42.1875 -28.929688 42.28125 -28.578125 C 42.65625 -27.523438 42.867188 -26.503906 42.921875 -25.515625 C 42.984375 -24.523438 42.835938 -23.519531 42.484375 -22.5 C 42.066406 -21.363281 41.484375 -20.316406 40.734375 -19.359375 C 39.992188 -18.398438 39.03125 -17.5 37.84375 -16.65625 C 36.65625 -15.820312 35.226562 -15.039062 33.5625 -14.3125 C 31.90625 -13.59375 29.972656 -12.875 27.765625 -12.15625 C 26.359375 -11.71875 24.796875 -11.234375 23.078125 -10.703125 C 21.367188 -10.171875 19.375 -9.691406 17.09375 -9.265625 C 16.125 -6.898438 16.097656 -4.8125 17.015625 -3 C 17.941406 -1.1875 19.644531 0.226562 22.125 1.25 C 23.507812 1.820312 24.984375 2.210938 26.546875 2.421875 C 28.109375 2.628906 29.691406 2.710938 31.296875 2.671875 C 32.898438 2.640625 34.5 2.503906 36.09375 2.265625 C 37.6875 2.023438 39.203125 1.734375 40.640625 1.390625 C 43.328125 0.734375 45.816406 0 48.109375 -0.8125 C 50.398438 -1.625 52.707031 -2.515625 55.03125 -3.484375 L 57.828125 -4.65625 C 59.441406 -5.207031 60.515625 -5.375 61.046875 -5.15625 C 61.335938 -5.03125 61.390625 -4.738281 61.203125 -4.28125 Z M 36.328125 -22.96875 C 36.453125 -23.34375 36.539062 -23.722656 36.59375 -24.109375 C 36.65625 -24.503906 36.65625 -24.867188 36.59375 -25.203125 C 36.539062 -25.535156 36.4375 -25.828125 36.28125 -26.078125 C 36.125 -26.335938 35.90625 -26.523438 35.625 -26.640625 C 34.300781 -27.097656 32.6875 -26.84375 30.78125 -25.875 C 28.882812 -24.90625 26.851562 -23.429688 24.6875 -21.453125 C 24.207031 -21.015625 23.726562 -20.503906 23.25 -19.921875 C 22.769531 -19.335938 22.296875 -18.738281 21.828125 -18.125 C 21.367188 -17.507812 20.929688 -16.882812 20.515625 -16.25 C 20.097656 -15.625 19.726562 -15.066406 19.40625 -14.578125 C 21.0625 -15.003906 22.585938 -15.398438 23.984375 -15.765625 C 25.390625 -16.128906 26.726562 -16.550781 28 -17.03125 C 28.800781 -17.3125 29.632812 -17.640625 30.5 -18.015625 C 31.363281 -18.390625 32.179688 -18.8125 32.953125 -19.28125 C 33.734375 -19.757812 34.414062 -20.300781 35 -20.90625 C 35.59375 -21.519531 36.035156 -22.207031 36.328125 -22.96875 Z M 36.328125 -22.96875 "/></g></g><g style="fill:#ffffff;fill-opacity:1;"><g transform="translate(164.949368, 209.649762)"><path style="stroke:none" d="M 38.25 -0.203125 C 37.375 0.273438 36.4375 0.515625 35.4375 0.515625 C 34.644531 0.515625 34 0.363281 33.5 0.0625 C 33 -0.238281 32.554688 -0.738281 32.171875 -1.4375 L 24.71875 -14.25 C 23.664062 -16.082031 22.382812 -17.378906 20.875 -18.140625 C 19.375 -18.898438 17.34375 -19.28125 14.78125 -19.28125 L 10.328125 -19.28125 L 10.328125 0 L 5.625 0 L 5.625 -45.765625 L 20.46875 -45.765625 C 25.738281 -45.765625 29.875 -44.597656 32.875 -42.265625 C 35.882812 -39.929688 37.390625 -36.695312 37.390625 -32.5625 C 37.390625 -29.289062 36.300781 -26.46875 34.125 -24.09375 C 31.945312 -21.71875 29.113281 -20.242188 25.625 -19.671875 C 26.882812 -18.628906 28.019531 -17.300781 29.03125 -15.6875 Z M 20.140625 -23.34375 C 24.054688 -23.34375 27.09375 -24.144531 29.25 -25.75 C 31.40625 -27.363281 32.484375 -29.632812 32.484375 -32.5625 C 32.484375 -35.5625 31.46875 -37.832031 29.4375 -39.375 C 27.414062 -40.925781 24.425781 -41.703125 20.46875 -41.703125 L 10.328125 -41.703125 L 10.328125 -23.34375 Z M 20.140625 -23.34375 "/></g></g><g style="fill:#ffffff;fill-opacity:1;"><g transform="translate(206.068685, 209.649762)"><path style="stroke:none" d="M 34.71875 0 C 33.539062 -5.40625 32.425781 -9.828125 31.375 -13.265625 L 9.15625 -13.265625 C 8.101562 -9.828125 6.988281 -5.40625 5.8125 0 L 0.984375 0 C 3.242188 -9.320312 5.703125 -17.613281 8.359375 -24.875 C 11.023438 -32.132812 14.1875 -39.097656 17.84375 -45.765625 L 22.75 -45.765625 C 26.363281 -39.140625 29.5 -32.195312 32.15625 -24.9375 C 34.820312 -17.6875 37.285156 -9.375 39.546875 0 Z M 30.265625 -17.1875 C 27.609375 -25.644531 24.273438 -33.578125 20.265625 -40.984375 C 16.253906 -33.578125 12.921875 -25.644531 10.265625 -17.1875 Z M 30.265625 -17.1875 "/></g></g><g style="fill:#fefdfe;fill-opacity:1;"><g transform="translate(254.872077, 205.966795)"><path style="stroke:none" d="M 27 -7.765625 C 27 -6.023438 27.140625 -4.65625 27.421875 -3.65625 C 27.710938 -2.65625 28.21875 -1.757812 28.9375 -0.96875 C 28.550781 -0.582031 28.101562 -0.273438 27.59375 -0.046875 C 27.082031 0.171875 26.601562 0.28125 26.15625 0.28125 C 25.394531 0.28125 24.757812 -0.148438 24.25 -1.015625 C 23.738281 -1.890625 23.410156 -3.082031 23.265625 -4.59375 C 22.085938 -3.007812 20.515625 -1.753906 18.546875 -0.828125 C 16.585938 0.0976562 14.53125 0.5625 12.375 0.5625 C 9.5 0.5625 7.191406 -0.179688 5.453125 -1.671875 C 3.710938 -3.171875 2.84375 -5.128906 2.84375 -7.546875 C 2.84375 -11.097656 4.570312 -13.875 8.03125 -15.875 C 11.488281 -17.882812 16.523438 -19.039062 23.140625 -19.34375 L 23.140625 -21.15625 C 23.140625 -23.65625 22.503906 -25.519531 21.234375 -26.75 C 19.972656 -27.976562 18.054688 -28.59375 15.484375 -28.59375 C 13.816406 -28.59375 12.273438 -28.242188 10.859375 -27.546875 C 9.441406 -26.847656 7.921875 -25.6875 6.296875 -24.0625 C 6.066406 -23.832031 5.785156 -23.71875 5.453125 -23.71875 C 5.066406 -23.71875 4.644531 -23.875 4.1875 -24.1875 C 3.738281 -24.507812 3.304688 -24.976562 2.890625 -25.59375 C 4.597656 -27.59375 6.535156 -29.117188 8.703125 -30.171875 C 10.878906 -31.234375 13.195312 -31.765625 15.65625 -31.765625 C 19.175781 -31.765625 21.945312 -30.816406 23.96875 -28.921875 C 25.988281 -27.035156 27 -24.445312 27 -21.15625 Z M 12.65625 -2.609375 C 14.695312 -2.609375 16.625 -3.175781 18.4375 -4.3125 C 20.25 -5.445312 21.816406 -7.054688 23.140625 -9.140625 L 23.140625 -16.171875 C 12.253906 -15.710938 6.8125 -12.859375 6.8125 -7.609375 C 6.8125 -4.273438 8.757812 -2.609375 12.65625 -2.609375 Z M 12.65625 -2.609375 "/></g></g><g style="fill:#fefdfe;fill-opacity:1;"><g transform="translate(286.525798, 205.966795)"><path style="stroke:none" d="M 18.609375 -31.765625 C 22.847656 -31.765625 26.082031 -30.375 28.3125 -27.59375 C 30.539062 -24.820312 31.65625 -20.84375 31.65625 -15.65625 C 31.65625 -12.363281 31.078125 -9.5 29.921875 -7.0625 C 28.773438 -4.625 27.113281 -2.742188 24.9375 -1.421875 C 22.757812 -0.0976562 20.210938 0.5625 17.296875 0.5625 C 15.859375 0.5625 14.410156 0.421875 12.953125 0.140625 C 11.503906 -0.140625 10.210938 -0.507812 9.078125 -0.96875 L 9.078125 12.484375 L 5.21875 12.484375 L 5.21875 -20.59375 C 5.21875 -26.1875 4.988281 -29.515625 4.53125 -30.578125 C 5.75 -31.148438 6.71875 -31.4375 7.4375 -31.4375 C 8.53125 -31.4375 9.078125 -30.335938 9.078125 -28.140625 L 9.078125 -27.90625 C 10.328125 -29.15625 11.773438 -30.109375 13.421875 -30.765625 C 15.066406 -31.429688 16.796875 -31.765625 18.609375 -31.765625 Z M 17.296875 -2.609375 C 20.554688 -2.609375 23.082031 -3.742188 24.875 -6.015625 C 26.675781 -8.285156 27.578125 -11.5 27.578125 -15.65625 C 27.578125 -24.28125 24.585938 -28.59375 18.609375 -28.59375 C 16.867188 -28.59375 15.175781 -28.195312 13.53125 -27.40625 C 11.882812 -26.613281 10.398438 -25.476562 9.078125 -24 L 9.078125 -4.3125 C 11.421875 -3.175781 14.160156 -2.609375 17.296875 -2.609375 Z M 17.296875 -2.609375 "/></g></g><g style="fill:#fefdfe;fill-opacity:1;"><g transform="translate(320.448602, 205.966795)"><path style="stroke:none" d="M 18.609375 -31.765625 C 22.847656 -31.765625 26.082031 -30.375 28.3125 -27.59375 C 30.539062 -24.820312 31.65625 -20.84375 31.65625 -15.65625 C 31.65625 -12.363281 31.078125 -9.5 29.921875 -7.0625 C 28.773438 -4.625 27.113281 -2.742188 24.9375 -1.421875 C 22.757812 -0.0976562 20.210938 0.5625 17.296875 0.5625 C 15.859375 0.5625 14.410156 0.421875 12.953125 0.140625 C 11.503906 -0.140625 10.210938 -0.507812 9.078125 -0.96875 L 9.078125 12.484375 L 5.21875 12.484375 L 5.21875 -20.59375 C 5.21875 -26.1875 4.988281 -29.515625 4.53125 -30.578125 C 5.75 -31.148438 6.71875 -31.4375 7.4375 -31.4375 C 8.53125 -31.4375 9.078125 -30.335938 9.078125 -28.140625 L 9.078125 -27.90625 C 10.328125 -29.15625 11.773438 -30.109375 13.421875 -30.765625 C 15.066406 -31.429688 16.796875 -31.765625 18.609375 -31.765625 Z M 17.296875 -2.609375 C 20.554688 -2.609375 23.082031 -3.742188 24.875 -6.015625 C 26.675781 -8.285156 27.578125 -11.5 27.578125 -15.65625 C 27.578125 -24.28125 24.585938 -28.59375 18.609375 -28.59375 C 16.867188 -28.59375 15.175781 -28.195312 13.53125 -27.40625 C 11.882812 -26.613281 10.398438 -25.476562 9.078125 -24 L 9.078125 -4.3125 C 11.421875 -3.175781 14.160156 -2.609375 17.296875 -2.609375 Z M 17.296875 -2.609375 "/></g></g></g></svg>